<svg xmlns="http://www.w3.org/2000/svg" viewBox="0 0 64 64">
  <rect x="1.5" y="1.5" width="61" height="61" rx="14" fill="#0b1220" stroke="#28344f" stroke-width="3"/>
  <path d="M33.47 51.00H30.16L30.14 44.84Q27.58 44.74 25.19 44.27Q22.79 43.80 20.52 42.96V37.60Q22.87 38.80 25.28 39.45Q27.68 40.09 30.16 40.18V33.81L29.48 33.69Q24.59 32.83 22.54 30.99Q20.48 29.15 20.48 25.69Q20.48 22.02 22.99 19.97Q25.49 17.91 30.14 17.73L30.16 13.00H33.47V17.65Q35.52 17.81 37.57 18.16Q39.61 18.50 41.68 19.06V24.25Q39.63 23.40 37.59 22.91Q35.54 22.43 33.47 22.33V28.20L34.13 28.33Q39.33 29.15 41.42 31.06Q43.52 32.97 43.52 36.72Q43.52 40.48 41.02 42.50Q38.53 44.51 33.47 44.80ZM30.16 27.73V22.39Q28.71 22.47 27.84 23.18Q26.97 23.89 26.97 24.97Q26.97 26.18 27.76 26.86Q28.56 27.55 30.16 27.73ZM33.47 34.40V40.09Q35.25 40.07 36.14 39.40Q37.03 38.72 37.03 37.37Q37.03 35.98 36.22 35.29Q35.40 34.61 33.47 34.40Z" fill="#3b82f6"/>
</svg>
